<svg width="35" height="35" viewBox="0 0 35 35" fill="none" xmlns="http://www.w3.org/2000/svg">
<path d="M3.26219 3.33731C2.68912 3.14629 2.06971 3.45599 1.87869 4.02906C1.68767 4.60212 1.99738 5.22153 2.57044 5.41255L2.95677 5.54133C3.94319 5.87014 4.59536 6.08927 5.07581 6.31278C5.53075 6.52442 5.72744 6.69474 5.85347 6.8696C5.9795 7.04446 6.07889 7.28492 6.1358 7.78344C6.19591 8.30991 6.19756 8.99791 6.19756 10.0377L6.19756 13.9341C6.19753 15.9285 6.19751 17.5361 6.36749 18.8004C6.54397 20.1131 6.92153 21.2183 7.79932 22.0961C8.67712 22.9739 9.78235 23.3514 11.095 23.5279C12.3593 23.6979 13.9669 23.6979 15.9613 23.6978H26.2496C26.8537 23.6978 27.3434 23.2082 27.3434 22.6041C27.3434 22 26.8537 21.5103 26.2496 21.5103H16.0413C13.948 21.5103 12.488 21.508 11.3865 21.3599C10.3164 21.2161 9.74973 20.9529 9.34612 20.5493C9.00314 20.2063 8.76159 19.7456 8.60847 18.9583H23.3651C24.7643 18.9583 25.4638 18.9583 26.0117 18.597C26.5596 18.2357 26.8352 17.5927 27.3864 16.3067L28.0114 14.8483C29.1919 12.0938 29.7821 10.7165 29.1338 9.73323C28.4854 8.74993 26.9869 8.74993 23.9901 8.74993H8.37785C8.36925 8.30122 8.35041 7.89638 8.30919 7.53531C8.22847 6.82828 8.05258 6.17953 7.62807 5.59055C7.20355 5.00156 6.64371 4.62955 5.99849 4.32939C5.39148 4.04701 4.61955 3.78973 3.70609 3.48527L3.26219 3.33731Z" fill="#787878"/>
<path d="M10.9368 26.25C12.145 26.25 13.1243 27.2294 13.1243 28.4375C13.1243 29.6456 12.145 30.625 10.9368 30.625C9.72873 30.625 8.74935 29.6456 8.74935 28.4375C8.74935 27.2294 9.72873 26.25 10.9368 26.25Z" fill="#787878"/>
<path d="M24.0618 26.2501C25.27 26.2501 26.2493 27.2295 26.2493 28.4376C26.2493 29.6457 25.27 30.6251 24.0618 30.6251C22.8537 30.6251 21.8743 29.6457 21.8743 28.4376C21.8743 27.2295 22.8537 26.2501 24.0618 26.2501Z" fill="#787878"/>
</svg>
