<svg width="35" height="35" viewBox="0 0 35 35" fill="none" xmlns="http://www.w3.org/2000/svg">
<path d="M2.91602 9.47913C2.91602 6.38553 2.91602 4.83874 3.87707 3.87768C4.83813 2.91663 6.38492 2.91663 9.47852 2.91663C12.5721 2.91663 14.1189 2.91663 15.08 3.87768C16.041 4.83874 16.041 6.38553 16.041 9.47913C16.041 12.5727 16.041 14.1195 15.08 15.0806C14.1189 16.0416 12.5721 16.0416 9.47852 16.0416C6.38492 16.0416 4.83813 16.0416 3.87707 15.0806C2.91602 14.1195 2.91602 12.5727 2.91602 9.47913Z" fill="#787878"/>
<path d="M18.959 25.5209C18.959 22.4273 18.959 20.8805 19.92 19.9194C20.8811 18.9584 22.4279 18.9584 25.5215 18.9584C28.6151 18.9584 30.1619 18.9584 31.1229 19.9194C32.084 20.8805 32.084 22.4273 32.084 25.5209C32.084 28.6145 32.084 30.1613 31.1229 31.1223C30.1619 32.0834 28.6151 32.0834 25.5215 32.0834C22.4279 32.0834 20.8811 32.0834 19.92 31.1223C18.959 30.1613 18.959 28.6145 18.959 25.5209Z" fill="#787878"/>
<path d="M2.91602 25.5209C2.91602 22.4273 2.91602 20.8805 3.87707 19.9194C4.83813 18.9584 6.38492 18.9584 9.47852 18.9584C12.5721 18.9584 14.1189 18.9584 15.08 19.9194C16.041 20.8805 16.041 22.4273 16.041 25.5209C16.041 28.6145 16.041 30.1613 15.08 31.1223C14.1189 32.0834 12.5721 32.0834 9.47852 32.0834C6.38492 32.0834 4.83813 32.0834 3.87707 31.1223C2.91602 30.1613 2.91602 28.6145 2.91602 25.5209Z" fill="#787878"/>
<path d="M18.959 9.47913C18.959 6.38553 18.959 4.83874 19.92 3.87768C20.8811 2.91663 22.4279 2.91663 25.5215 2.91663C28.6151 2.91663 30.1619 2.91663 31.1229 3.87768C32.084 4.83874 32.084 6.38553 32.084 9.47913C32.084 12.5727 32.084 14.1195 31.1229 15.0806C30.1619 16.0416 28.6151 16.0416 25.5215 16.0416C22.4279 16.0416 20.8811 16.0416 19.92 15.0806C18.959 14.1195 18.959 12.5727 18.959 9.47913Z" fill="#787878"/>
</svg>
