<svg width="35" height="36" viewBox="0 0 35 36" fill="none" xmlns="http://www.w3.org/2000/svg">
<path d="M26.9786 4.45618H23.3327C22.93 4.45618 22.6036 4.78869 22.6036 5.19887V5.28637L27.7077 9.44547V5.19887C27.7077 4.78869 27.3813 4.45618 26.9786 4.45618Z" fill="#749BFF"/>
<path fill-rule="evenodd" clip-rule="evenodd" d="M15.6765 14.1112C15.6765 13.0858 16.4926 12.2545 17.4994 12.2545C18.5062 12.2545 19.3223 13.0858 19.3223 14.1112C19.3223 15.1367 18.5062 15.968 17.4994 15.968C16.4926 15.968 15.6765 15.1367 15.6765 14.1112Z" fill="#749BFF"/>
<path fill-rule="evenodd" clip-rule="evenodd" d="M30.2598 16.2806L31.3995 17.2092C31.8712 17.5936 32.5594 17.5157 32.9368 17.0353C33.3141 16.5548 33.2377 15.8537 32.766 15.4694L20.9157 5.81326C18.9184 4.18578 16.0804 4.18578 14.0831 5.81326L2.2328 15.4694C1.7611 15.8537 1.68463 16.5548 2.06198 17.0353C2.43933 17.5157 3.12762 17.5936 3.59932 17.2092L4.73897 16.2806V31.5646H2.91606C2.31199 31.5646 1.82231 32.0634 1.82231 32.6786C1.82231 33.2939 2.31199 33.7927 2.91606 33.7927H32.0827C32.6868 33.7927 33.1765 33.2939 33.1765 32.6786C33.1765 32.0634 32.6868 31.5646 32.0827 31.5646H30.2598V16.2806ZM13.489 14.1112C13.489 11.8552 15.2845 10.0264 17.4994 10.0264C19.7143 10.0264 21.5098 11.8552 21.5098 14.1112C21.5098 16.3672 19.7143 18.1961 17.4994 18.1961C15.2845 18.1961 13.489 16.3672 13.489 14.1112ZM17.5714 19.6814C18.541 19.6814 19.3764 19.6813 20.0454 19.773C20.7624 19.8711 21.4496 20.0925 22.0071 20.6603C22.5645 21.2281 22.7819 21.9281 22.8783 22.6584C22.9626 23.2972 22.9678 24.085 22.9681 24.9948C22.9681 25.0554 22.9681 25.1166 22.9681 25.1783L22.9681 31.5646H20.7806V25.2517C20.7806 24.1698 20.7783 23.4705 20.7103 22.9553C20.6465 22.4721 20.5435 22.3206 20.4603 22.2358C20.377 22.151 20.2283 22.0461 19.7539 21.9812C19.2481 21.9119 18.5615 21.9095 17.4994 21.9095C16.4373 21.9095 15.7507 21.9119 15.2448 21.9812C14.7704 22.0461 14.6218 22.151 14.5385 22.2358C14.4552 22.3206 14.3523 22.4721 14.2885 22.9553C14.2205 23.4705 14.2181 24.1698 14.2181 25.2517V31.5646H12.0306L12.0306 25.1783C12.0306 24.1907 12.0305 23.3398 12.1205 22.6584C12.2169 21.9281 12.4343 21.2281 12.9917 20.6603C13.5491 20.0925 14.2364 19.8711 14.9534 19.773C15.6224 19.6813 16.4578 19.6814 17.4274 19.6814H17.5714Z" fill="#749BFF"/>
<path fill-rule="evenodd" clip-rule="evenodd" d="M15.6765 14.1112C15.6765 13.0858 16.4926 12.2545 17.4994 12.2545C18.5062 12.2545 19.3223 13.0858 19.3223 14.1112C19.3223 15.1367 18.5062 15.968 17.4994 15.968C16.4926 15.968 15.6765 15.1367 15.6765 14.1112Z" fill="#749BFF"/>
</svg>
