<svg width="35" height="35" viewBox="0 0 35 35" fill="none" xmlns="http://www.w3.org/2000/svg">
<path fill-rule="evenodd" clip-rule="evenodd" d="M30.625 16.1838V23.4659C30.625 27.9817 30.625 30.2396 29.5544 31.2262C29.0439 31.6968 28.3994 31.9924 27.7128 32.0709C26.2733 32.2357 24.5923 30.7488 21.2302 27.7751C19.7441 26.4607 19.001 25.8034 18.1413 25.6303C17.7179 25.545 17.2821 25.545 16.8587 25.6303C15.999 25.8034 15.2559 26.4607 13.7698 27.7751C10.4077 30.7488 8.72669 32.2357 7.28717 32.0709C6.60063 31.9924 5.95615 31.6968 5.44557 31.2262C4.375 30.2396 4.375 27.9817 4.375 23.4659V16.1838C4.375 9.92961 4.375 6.8025 6.29711 4.85956C8.21922 2.91663 11.3128 2.91663 17.5 2.91663C23.6872 2.91663 26.7808 2.91663 28.7029 4.85956C30.625 6.8025 30.625 9.92962 30.625 16.1838ZM12.0312 8.74996C12.0312 8.1459 12.5209 7.65621 13.125 7.65621H21.875C22.4791 7.65621 22.9688 8.1459 22.9688 8.74996C22.9688 9.35402 22.4791 9.84371 21.875 9.84371H13.125C12.5209 9.84371 12.0312 9.35402 12.0312 8.74996Z" fill="#787878"/>
</svg>
